<?xml version="1.0" encoding="iso-8859-1"?>
<!-- Generator: Adobe Illustrator 19.0.0, SVG Export Plug-In . SVG Version: 6.00 Build 0)  -->
<svg version="1.1" id="Capa_1" xmlns="http://www.w3.org/2000/svg" xmlns:xlink="http://www.w3.org/1999/xlink" x="0px" y="0px"
	 viewBox="0 0 512 512" style="enable-background:new 0 0 512 512;" xml:space="preserve">
<g>
	<g>
		<path d="M504,112H8c-4.418,0-8,3.582-8,8v48c0,4.418,3.582,8,8,8h24v216c0,4.418,3.582,8,8,8h32c4.418,0,8-3.582,8-8V176h184v96
			c0,4.418,3.582,8,8,8h160v112c0,4.418,3.582,8,8,8h32c4.418,0,8-3.582,8-8V176h24c4.418,0,8-3.582,8-8v-48
			C512,115.582,508.418,112,504,112z M64,384H48V176h16V384z M432,264H280v-32h40c0,4.418,3.582,8,8,8h48c4.418,0,8-3.582,8-8h48
			V264z M432,216H280v-40h40c0,4.418,3.582,8,8,8h48c4.418,0,8-3.582,8-8h48V216z M464,384h-16V176h16V384z M496,160H16v-32h480V160
			z"/>
	</g>
</g>
<g>
</g>
<g>
</g>
<g>
</g>
<g>
</g>
<g>
</g>
<g>
</g>
<g>
</g>
<g>
</g>
<g>
</g>
<g>
</g>
<g>
</g>
<g>
</g>
<g>
</g>
<g>
</g>
<g>
</g>
</svg>
