<?xml version="1.0" encoding="iso-8859-1"?>
<!-- Generator: Adobe Illustrator 19.0.0, SVG Export Plug-In . SVG Version: 6.00 Build 0)  -->
<svg version="1.1" id="Capa_1" xmlns="http://www.w3.org/2000/svg" xmlns:xlink="http://www.w3.org/1999/xlink" x="0px" y="0px"
	 viewBox="0 0 512 512" style="enable-background:new 0 0 512 512;" xml:space="preserve">
<g>
	<g>
		<g>
			<path d="M256,304c66.168,0,120-68.184,120-152S322.168,0,256,0S136,68.184,136,152S189.832,304,256,304z M256,16
				c57.344,0,104,61.008,104,136s-46.656,136-104,136s-104-61.008-104-136S198.656,16,256,16z"/>
			<path d="M256,264c48.52,0,88-50.24,88-112S304.52,40,256,40c-48.52,0-88,50.24-88,112S207.48,264,256,264z M256,56
				c39.704,0,72,43.064,72,96c0,52.936-32.296,96-72,96c-39.704,0-72-43.064-72-96C184,99.064,216.296,56,256,56z"/>
			<path d="M240,200c2.122,0,4.156-0.844,5.656-2.344l32-32c3.07-3.178,2.982-8.242-0.196-11.312c-3.1-2.994-8.015-2.994-11.116,0
				l-32,32c-3.124,3.125-3.123,8.19,0.002,11.314C235.846,199.157,237.879,200,240,200z"/>
			<path d="M242.344,229.656c3.124,3.123,8.188,3.123,11.312,0l60-60c3.07-3.178,2.982-8.242-0.196-11.312
				c-3.1-2.994-8.015-2.994-11.116,0l-60,60C239.221,221.468,239.221,226.532,242.344,229.656z"/>
			<path d="M408,328H104c-4.418,0-8,3.582-8,8v168c0,4.418,3.582,8,8,8h32c4.418,0,8-3.582,8-8v-64h224v64c0,4.418,3.582,8,8,8h32
				c4.418,0,8-3.582,8-8V336C416,331.582,412.418,328,408,328z M128,496h-16v-56h16V496z M400,496h-16v-56h16V496z M400,424H112v-80
				h80c0,4.418,3.582,8,8,8h112c4.418,0,8-3.582,8-8h80V424z"/>
		</g>
	</g>
</g>
<g>
</g>
<g>
</g>
<g>
</g>
<g>
</g>
<g>
</g>
<g>
</g>
<g>
</g>
<g>
</g>
<g>
</g>
<g>
</g>
<g>
</g>
<g>
</g>
<g>
</g>
<g>
</g>
<g>
</g>
</svg>
