<?xml version="1.0" encoding="iso-8859-1"?>
<!-- Generator: Adobe Illustrator 19.0.0, SVG Export Plug-In . SVG Version: 6.00 Build 0)  -->
<svg version="1.1" id="Capa_1" xmlns="http://www.w3.org/2000/svg" xmlns:xlink="http://www.w3.org/1999/xlink" x="0px" y="0px"
	 viewBox="0 0 512 512" style="enable-background:new 0 0 512 512;" xml:space="preserve">
<g>
	<g>
		<path d="M336,0H176c-4.418,0-8,3.582-8,8v160c0,4.418,3.582,8,8,8h72v288h-64c-4.418,0-8,3.582-8,8v32c0,4.418,3.582,8,8,8h144
			c4.418,0,8-3.582,8-8v-32c0-4.418-3.582-8-8-8h-64V176h24v34.216c-7.653,4.418-10.275,14.204-5.856,21.856
			c4.418,7.653,14.204,10.275,21.856,5.856c7.653-4.418,10.275-14.204,5.856-21.856c-1.404-2.432-3.424-4.452-5.856-5.856V176h32
			c4.418,0,8-3.582,8-8V8C344,3.582,340.418,0,336,0z M320,480v16H192v-16H320z M328,160H184V16h144V160z"/>
	</g>
</g>
<g>
</g>
<g>
</g>
<g>
</g>
<g>
</g>
<g>
</g>
<g>
</g>
<g>
</g>
<g>
</g>
<g>
</g>
<g>
</g>
<g>
</g>
<g>
</g>
<g>
</g>
<g>
</g>
<g>
</g>
</svg>
