<?xml version="1.0" encoding="iso-8859-1"?>
<!-- Generator: Adobe Illustrator 19.0.0, SVG Export Plug-In . SVG Version: 6.00 Build 0)  -->
<svg version="1.1" id="Capa_1" xmlns="http://www.w3.org/2000/svg" xmlns:xlink="http://www.w3.org/1999/xlink" x="0px" y="0px"
	 viewBox="0 0 512 512" style="enable-background:new 0 0 512 512;" xml:space="preserve">
<g>
	<g>
		<g>
			<path d="M176,376H88v-88c0-4.418-3.582-8-8-8H40c-4.418,0-8,3.582-8,8v216c0,4.418,3.582,8,8,8s8-3.582,8-8v-72h120v72
				c0,4.418,3.582,8,8,8s8-3.582,8-8V384C184,379.582,180.418,376,176,376z M168,416H48V296h24v88c0,4.418,3.582,8,8,8h88V416z"/>
			<path d="M472,280h-40c-4.418,0-8,3.582-8,8v88h-88c-4.418,0-8,3.582-8,8v120c0,4.418,3.582,8,8,8s8-3.582,8-8v-72h120v72
				c0,4.418,3.582,8,8,8s8-3.582,8-8V288C480,283.582,476.418,280,472,280z M464,416H344v-24h88c4.418,0,8-3.582,8-8v-88h24V416z"/>
			<path d="M384,352v-32c0-4.418-3.582-8-8-8H136c-4.418,0-8,3.582-8,8v32c0,4.418,3.582,8,8,8h96v144c0,4.418,3.582,8,8,8h32
				c4.418,0,8-3.582,8-8V360h96C380.418,360,384,356.418,384,352z M264,496h-16V360h16V496z M368,344H144v-16h224V344z"/>
			<path d="M504,0H8C3.582,0,0,3.582,0,8v40c0,4.418,3.582,8,8,8h240v24h-16c-22.08,0.026-39.974,17.92-40,40v80
				c0,4.418,3.582,8,8,8h112c4.418,0,8-3.582,8-8v-80c-0.026-22.08-17.92-39.974-40-40h-16V56h240c4.418,0,8-3.582,8-8V8
				C512,3.582,508.418,0,504,0z M280,96c13.255,0,24,10.745,24,24v72h-96v-72c0-13.255,10.745-24,24-24H280z M496,40H16V16h480V40z"
				/>
		</g>
	</g>
</g>
<g>
</g>
<g>
</g>
<g>
</g>
<g>
</g>
<g>
</g>
<g>
</g>
<g>
</g>
<g>
</g>
<g>
</g>
<g>
</g>
<g>
</g>
<g>
</g>
<g>
</g>
<g>
</g>
<g>
</g>
</svg>
