<?xml version="1.0" encoding="iso-8859-1"?>
<!-- Generator: Adobe Illustrator 19.0.0, SVG Export Plug-In . SVG Version: 6.00 Build 0)  -->
<svg version="1.1" id="Capa_1" xmlns="http://www.w3.org/2000/svg" xmlns:xlink="http://www.w3.org/1999/xlink" x="0px" y="0px"
	 viewBox="0 0 512 512" style="enable-background:new 0 0 512 512;" xml:space="preserve">
<g>
	<g>
		<g>
			<path d="M504,340h-24v-48h16c4.418-0.002,7.998-3.585,7.996-8.004c0-0.438-0.036-0.876-0.108-1.308l-8-48
				c-0.641-3.858-3.977-6.686-7.888-6.688h-32c-3.911,0.002-7.247,2.83-7.888,6.688l-8,48c-0.725,4.358,2.221,8.479,6.58,9.204
				c0.432,0.072,0.87,0.108,1.308,0.108h16v48h-32c-0.27,0.037-0.537,0.09-0.8,0.16c-3.756-18.678-20.148-32.127-39.2-32.16h-16v-24
				c0-13.255-10.745-24-24-24h-64c-13.255,0-24,10.745-24,24v24h-16v-24c0-13.255-10.745-24-24-24h-64c-13.255,0-24,10.745-24,24v24
				h-16c-19.052,0.033-35.444,13.482-39.2,32.16c-0.263-0.07-0.53-0.123-0.8-0.16H48v-48h16c4.418-0.002,7.998-3.585,7.996-8.004
				c0-0.438-0.036-0.876-0.108-1.308l-8-48C63.247,230.83,59.911,228.002,56,228H24c-3.911,0.002-7.247,2.83-7.888,6.688l-8,48
				c-0.725,4.358,2.221,8.479,6.58,9.204C15.124,291.964,15.562,292,16,292h16v48H8c-4.418,0-8,3.582-8,8v88c0,4.418,3.582,8,8,8
				h496c4.418,0,8-3.582,8-8v-88C512,343.582,508.418,340,504,340z M25.448,276l5.328-32h18.448l5.328,32H25.448z M72,428H16v-72h56
				V428z M280,284c0-4.418,3.582-8,8-8h64c4.418,0,8,3.582,8,8v24h-80V284z M152,284c0-4.418,3.582-8,8-8h64c4.418,0,8,3.582,8,8v24
				h-80V284z M416,428H96v-24h320V428z M416,388H96v-40c0-13.255,10.745-24,24-24h272c13.255,0,24,10.745,24,24V388z M457.448,276
				l5.328-32h18.448l5.328,32H457.448z M496,428h-56v-72h56V428z"/>
			<path d="M160,212h176c4.418,0,8-3.582,8-8V76c0-4.418-3.582-8-8-8H160c-4.418,0-8,3.582-8,8v128C152,208.418,155.582,212,160,212
				z M168,84h160v81.184L310.248,143c-1.419-1.779-3.528-2.87-5.8-3c-2.269-0.1-4.478,0.742-6.104,2.328L272,168.688l-50.344-50.344
				c-2.955-2.951-7.684-3.132-10.856-0.416L168,154.616V84z M168,175.672l47.576-40.8l50.768,50.76
				c3.124,3.123,8.188,3.123,11.312,0l25.68-25.68L328,190.816V196H168V175.672z"/>
			<path d="M280,140c13.255,0,24-10.745,24-24s-10.745-24-24-24s-24,10.745-24,24S266.745,140,280,140z M280,108
				c4.418,0,8,3.582,8,8s-3.582,8-8,8s-8-3.582-8-8S275.582,108,280,108z"/>
		</g>
	</g>
</g>
<g>
</g>
<g>
</g>
<g>
</g>
<g>
</g>
<g>
</g>
<g>
</g>
<g>
</g>
<g>
</g>
<g>
</g>
<g>
</g>
<g>
</g>
<g>
</g>
<g>
</g>
<g>
</g>
<g>
</g>
</svg>
