<svg width="45" height="45" viewBox="0 0 45 45" fill="none" xmlns="http://www.w3.org/2000/svg">
<g clip-path="url(#clip0)">
<path d="M6 5.69933C6 5 7.20574 3.99833 7.78299 3.39867C8.26167 2.90141 8.46657 2.61047 8.5 1.89867C8.52848 1.292 8.39299 0.470971 9 0.500002C9.60668 0.528373 9.79601 1.24256 9.76764 1.84924C9.6955 3.3872 8.5 4.19933 8 4.89867C7.5 5.19933 7.34563 5.89867 7.5 6.19933C7.52089 6.6371 8.19316 7.11884 8.66909 7.11884C9.15821 7.11884 10 6.65426 10 6.19933C10 5.592 10.0928 4.89867 10.7 4.89867C11.3072 4.89867 11.5 5.29133 11.5 5.89867C11.5 7.69933 9.99255 8.39867 8.66909 8.39867C7.34563 8.39867 6 7.5 6 5.69933ZM16.6057 23.3151C16.6581 23.3225 16.7102 23.3262 16.7616 23.3262C17.3003 23.3262 17.7711 22.9299 17.8489 22.381L17.8608 22.297C17.9462 21.6957 17.528 21.139 16.9267 21.0537C16.3257 20.9686 15.7687 21.3866 15.6834 21.988L15.6715 22.072C15.5862 22.6732 16.0044 23.2298 16.6057 23.3151ZM30.5 35C31.1072 35 31.5 34.5056 31.5 33.8982V31.2231C31.5 30.3545 32.6314 29 33.5 29H38.4837C40.5651 29 41.5 28.0814 41.5 26C41.5 23.9187 40.5651 22.5 38.4837 22.5H34.2437C33.3752 22.5 32.6686 21.3916 32.6686 20.5229C32.6686 19.6543 33.3752 18.9475 34.2437 18.9475H37.1115C39.1928 18.9475 40.5 17.0814 40.5 15C40.5 14.3927 40.3936 14.0732 39.7864 14.0732C39.1791 14.0732 39 14.8927 39 15.5C39 16.3686 37.98 17 37.1115 17H34.2437C32.1624 17 31 18.4415 31 20.5229C31 22.6043 32.1624 24.2977 34.2437 24.2977H38.4837C39.3523 24.2977 40.0591 25.0043 40.0591 25.873C40.0591 26.7417 39.3523 27.4485 38.4837 27.4485H33.5935C31.5121 27.4485 30 29.1417 30 31.2231V33.8982C30 34.5056 29.8928 35 30.5 35ZM19.761 29.3547C18.367 29.3324 16.6463 27.8712 16.6057 26.5C16.5877 25.8929 16.6034 24.9819 16 25C15.3929 25.018 15.1433 25.5947 15.1613 26.2018C15.2362 28.7268 17.2137 30.6615 19.761 30.7023C19.7671 30.7025 19.773 30.7025 19.7789 30.7025C20.378 30.7025 20.9903 30.6012 21 30C21.0097 29.3928 20.3681 29.3645 19.761 29.3547ZM45 44.1987C45 44.806 44.5075 44.8987 43.9003 44.8987C43.293 44.8987 35.8178 44.8987 35.8178 44.8987C35.8145 44.8993 35.8111 44.8987 35.8078 44.8987C35.8047 44.8987 35.8012 44.8987 35.7981 44.8987H1.09967C0.49244 44.8987 0 44.806 0 44.1987C0 43.5913 0.49244 43.4987 1.09967 43.4987C1.70689 43.4987 3 43.4987 3 43.4987V13.1987C3 12.5913 3.39277 12.1987 4 12.1987H7.78299V10.7013C7.78299 10.094 8.06187 9.60164 8.66909 9.60164C9.27632 9.60164 9.55629 10.094 9.55629 10.7013V12.1987H13.5C14.1072 12.1987 14 12.6987 14 12.6987V14.0926C14 14.6999 13.8207 15.1987 13.2135 15.1987C12.6063 15.1987 12.397 14.6999 12.397 14.0926V13.6987H4.5V43.4987H12.3971V36.226C12.3971 35.6186 12.5928 35.1987 13.2 35.1987C13.8072 35.1987 14 35.5913 14 36.1987V43.4987H15.9082C15.9066 43.4745 15.9059 43.4502 15.9059 43.4256C15.9059 42.8183 16.3928 42.6987 17 42.6987H19V34.3987C16.8128 34.1197 14.8946 33.0312 13.5 31.3987C11.8558 29.474 11.3765 26.5719 11.7556 23.8987L13 18.3987C13.0769 17.8563 13.6206 17.3987 14.1682 17.3987H25C25.5476 17.3987 26.4231 17.8563 26.5 18.3987L27.5 23.8987C27.8788 26.572 27.6443 29.474 26 31.3987C24.6055 33.031 22.687 34.1197 20.5 34.3987V42.6987H22.5C23.1072 42.6987 23.4552 42.8183 23.4552 43.4256C23.4552 43.4501 23.4544 43.4745 23.4529 43.4987H35.2767L39 38.3987H24C23.3928 38.3987 23 38.206 23 37.5987C23 36.9913 23.3928 36.8987 24 36.8987H40.5C40.9217 36.8987 41.3165 37.019 41.5 37.3987C41.6836 37.7784 41.2619 38.368 41 38.6987L37.5 43.4987C37.5 43.4987 43.2929 43.4987 43.9003 43.4987C44.5076 43.4987 45 43.5913 45 44.1987ZM19.5 33.1987C21.4833 33.1625 23.4168 31.9676 24.6178 30.5616C25.8465 29.1235 26.3638 27.2082 26.0746 25.1686L25.1928 18.9475H14.1682L13.2865 25.1686C12.9972 27.2081 13.5145 29.1232 14.743 30.5614C15.9444 31.9675 17.5166 33.1626 19.5 33.1987Z" fill="#9E9685"/>
</g>
<defs>
<clipPath id="clip0">
<rect width="45" height="45" fill="white"/>
</clipPath>
</defs>
</svg>
