<svg width="55" height="60" viewBox="0 0 55 60" fill="none" xmlns="http://www.w3.org/2000/svg">
<g opacity="0.6">
<path d="M44.9794 38.4508C45.1948 38.4507 45.4013 38.3619 45.5536 38.204C45.7059 38.0461 45.7915 37.8319 45.7916 37.6086V22.3913C45.7915 22.168 45.7059 21.9538 45.5536 21.7959C45.4013 21.638 45.1948 21.5492 44.9794 21.5491C43.7181 21.5477 42.5088 21.0275 41.6169 20.1027C40.725 19.178 40.2234 17.9241 40.222 16.6162C40.2219 16.3929 40.1363 16.1788 39.984 16.0208C39.8317 15.8629 39.6252 15.7742 39.4098 15.774H15.5904C15.375 15.7742 15.1684 15.8629 15.0162 16.0208C14.8639 16.1788 14.7782 16.3929 14.7781 16.6162C14.7768 17.9241 14.2751 19.178 13.3832 20.1027C12.4913 21.0275 11.2821 21.5477 10.0207 21.5491C9.80535 21.5492 9.59883 21.638 9.44653 21.7959C9.29423 21.9538 9.20862 22.168 9.2085 22.3913L9.2085 37.6086C9.20862 37.8319 9.29423 38.0461 9.44653 38.204C9.59883 38.3619 9.80535 38.4507 10.0207 38.4508C11.2821 38.4522 12.4913 38.9724 13.3832 39.8971C14.2751 40.8219 14.7768 42.0758 14.7781 43.3837C14.7782 43.607 14.8639 43.8211 15.0162 43.979C15.1684 44.137 15.375 44.2257 15.5904 44.2259H39.4098C39.6252 44.2257 39.8317 44.137 39.984 43.979C40.1363 43.8211 40.2219 43.607 40.222 43.3837C40.2234 42.0758 40.725 40.8219 41.6169 39.8971C42.5088 38.9724 43.7181 38.4522 44.9794 38.4508ZM16.3511 42.5415C16.1692 41.09 15.5294 39.7416 14.5313 38.7066C13.5331 37.6716 12.2328 37.008 10.833 36.8193L10.833 23.1806C12.2328 22.9919 13.5331 22.3283 14.5313 21.2933C15.5294 20.2583 16.1692 18.9099 16.3511 17.4584H38.649C38.8309 18.9099 39.4707 20.2583 40.4689 21.2933C41.467 22.3283 42.7673 22.9919 44.1672 23.1806V36.8193C42.7673 37.008 41.467 37.6716 40.4689 38.7066C39.4707 39.7416 38.8309 41.09 38.649 42.5415H16.3511Z" fill="#9E9685"/>
<path d="M34.2879 19.5039C34.2878 19.2806 34.2022 19.0664 34.0499 18.9085C33.8976 18.7506 33.6911 18.6618 33.4757 18.6617H26.2816C26.0662 18.6617 25.8596 18.7504 25.7073 18.9084C25.5549 19.0663 25.4694 19.2805 25.4694 19.5039C25.4694 19.7273 25.5549 19.9415 25.7073 20.0994C25.8596 20.2574 26.0662 20.3461 26.2816 20.3461H33.4757C33.6911 20.3461 33.8977 20.2574 34.05 20.0994C34.2023 19.9415 34.2879 19.7273 34.2879 19.5039Z" fill="#9E9685"/>
<path d="M38.5232 30.0001C38.5232 26.2217 33.6814 23.2625 27.5 23.2625C21.3187 23.2625 16.4768 26.2217 16.4768 30.0001C16.4768 33.7784 21.3187 36.7376 27.5 36.7376C33.6814 36.7376 38.5232 33.7784 38.5232 30.0001ZM18.1013 30.0001C18.1013 27.2612 22.4052 24.9469 27.5 24.9469C32.5948 24.9469 36.8987 27.2612 36.8987 30.0001C36.8987 32.7389 32.5948 35.0532 27.5 35.0532C22.4052 35.0532 18.1013 32.7389 18.1013 30.0001Z" fill="#9E9685"/>
<path d="M0 10.8422C0 11.0656 0.0855747 11.2798 0.237899 11.4377C0.390222 11.5957 0.596818 11.6844 0.812236 11.6844H3.63789V16.3863H0.812236C0.596818 16.3863 0.390222 16.475 0.237899 16.6329C0.0855747 16.7909 0 17.0051 0 17.2285C0 17.4518 0.0855747 17.666 0.237899 17.824C0.390222 17.9819 0.596818 18.0706 0.812236 18.0706H3.63789V22.7716H0.812236C0.596818 22.7716 0.390222 22.8603 0.237899 23.0182C0.0855747 23.1762 0 23.3904 0 23.6137C0 23.8371 0.0855747 24.0513 0.237899 24.2093C0.390222 24.3672 0.596818 24.4559 0.812236 24.4559H3.63789L3.63789 29.1578H0.812236C0.596818 29.1578 0.390222 29.2465 0.237899 29.4045C0.0855747 29.5624 0 29.7766 0 30C0 30.2234 0.0855747 30.4376 0.237899 30.5955C0.390222 30.7535 0.596818 30.8422 0.812236 30.8422H3.63789V35.5441H0.812236C0.596818 35.5441 0.390222 35.6328 0.237899 35.7907C0.0855747 35.9487 0 36.1629 0 36.3863C0 36.6096 0.0855747 36.8238 0.237899 36.9818C0.390222 37.1397 0.596818 37.2285 0.812236 37.2285H3.63789V41.9294H0.812236C0.596818 41.9294 0.390222 42.0181 0.237899 42.176C0.0855747 42.334 0 42.5482 0 42.7715C0 42.9949 0.0855747 43.2091 0.237899 43.3671C0.390222 43.525 0.596818 43.6137 0.812236 43.6137H3.63789L3.63789 48.3156H0.812236C0.596818 48.3156 0.390222 48.4043 0.237899 48.5623C0.0855747 48.7202 0 48.9344 0 49.1578C0 49.3812 0.0855747 49.5954 0.237899 49.7533C0.390222 49.9113 0.596818 50 0.812236 50H54.1878C54.4032 50 54.6098 49.9113 54.7621 49.7533C54.9144 49.5954 55 49.3812 55 49.1578C55 48.9344 54.9144 48.7202 54.7621 48.5623C54.6098 48.4043 54.4032 48.3156 54.1878 48.3156H51.3621V43.6137H54.1878C54.4032 43.6137 54.6098 43.525 54.7621 43.3671C54.9144 43.2091 55 42.9949 55 42.7715C55 42.5482 54.9144 42.334 54.7621 42.176C54.6098 42.0181 54.4032 41.9294 54.1878 41.9294H51.3621V37.2285H54.1878C54.4032 37.2285 54.6098 37.1397 54.7621 36.9818C54.9144 36.8238 55 36.6096 55 36.3863C55 36.1629 54.9144 35.9487 54.7621 35.7907C54.6098 35.6328 54.4032 35.5441 54.1878 35.5441H51.3621V30.8422H54.1878C54.4032 30.8422 54.6098 30.7535 54.7621 30.5955C54.9144 30.4376 55 30.2234 55 30C55 29.7766 54.9144 29.5624 54.7621 29.4045C54.6098 29.2465 54.4032 29.1578 54.1878 29.1578H51.3621V24.4559H54.1878C54.4032 24.4559 54.6098 24.3672 54.7621 24.2093C54.9144 24.0513 55 23.8371 55 23.6137C55 23.3904 54.9144 23.1762 54.7621 23.0182C54.6098 22.8603 54.4032 22.7716 54.1878 22.7716H51.3621V18.0706H54.1878C54.4032 18.0706 54.6098 17.9819 54.7621 17.824C54.9144 17.666 55 17.4518 55 17.2285C55 17.0051 54.9144 16.7909 54.7621 16.6329C54.6098 16.475 54.4032 16.3863 54.1878 16.3863H51.3621V11.6844H54.1878C54.4032 11.6844 54.6098 11.5957 54.7621 11.4377C54.9144 11.2798 55 11.0656 55 10.8422C55 10.6188 54.9144 10.4046 54.7621 10.2467C54.6098 10.0887 54.4032 10 54.1878 10H0.812236C0.596856 10.0001 0.390331 10.0889 0.238034 10.2468C0.085737 10.4047 0.000122969 10.6189 0 10.8422ZM5.26236 48.3156L5.26236 11.6844H49.7376V48.3156H5.26236Z" fill="#9E9685"/>
</g>
</svg>
