<?xml version="1.0" encoding="iso-8859-1"?>
<!-- Generator: Adobe Illustrator 19.0.0, SVG Export Plug-In . SVG Version: 6.00 Build 0)  -->
<svg version="1.1" id="Capa_1" xmlns="http://www.w3.org/2000/svg" xmlns:xlink="http://www.w3.org/1999/xlink" x="0px" y="0px"
	 viewBox="0 0 511 511" style="enable-background:new 0 0 511 511;" xml:space="preserve">
<path d="M495,85.766c9.29-3.138,16-11.93,16-22.266c0-12.958-10.542-23.5-23.5-23.5S464,50.542,464,63.5
	c0,10.336,6.71,19.128,16,22.266V160H31V85.766c9.29-3.138,16-11.93,16-22.266C47,50.542,36.458,40,23.5,40S0,50.542,0,63.5
	c0,10.336,6.71,19.128,16,22.266V456h-0.5c-4.142,0-7.5,3.358-7.5,7.5s3.358,7.5,7.5,7.5h16c4.142,0,7.5-3.358,7.5-7.5
	s-3.358-7.5-7.5-7.5H31v-49h449v49h-0.5c-4.142,0-7.5,3.358-7.5,7.5s3.358,7.5,7.5,7.5h16c4.142,0,7.5-3.358,7.5-7.5
	s-3.358-7.5-7.5-7.5H495V85.766z M359,336V207h49v129H359z M295,336V207h49v129H295z M231,336V207h49v129H231z M167,336V207h49v129
	H167z M103,336V207h49v129H103z M31,336V207h57v129H31z M423,207h57v129h-57V207z M487.5,55c4.687,0,8.5,3.813,8.5,8.5
	s-3.813,8.5-8.5,8.5s-8.5-3.813-8.5-8.5S482.813,55,487.5,55z M480,175v17H31v-17H480z M23.5,55c4.687,0,8.5,3.813,8.5,8.5
	S28.187,72,23.5,72S15,68.187,15,63.5S18.813,55,23.5,55z M31,392v-41h449v41H31z"/>
<g>
</g>
<g>
</g>
<g>
</g>
<g>
</g>
<g>
</g>
<g>
</g>
<g>
</g>
<g>
</g>
<g>
</g>
<g>
</g>
<g>
</g>
<g>
</g>
<g>
</g>
<g>
</g>
<g>
</g>
</svg>
