<?xml version="1.0" encoding="iso-8859-1"?>
<!-- Generator: Adobe Illustrator 19.0.0, SVG Export Plug-In . SVG Version: 6.00 Build 0)  -->
<svg version="1.1" id="Capa_1" xmlns="http://www.w3.org/2000/svg" xmlns:xlink="http://www.w3.org/1999/xlink" x="0px" y="0px"
	 viewBox="0 0 463 463" style="enable-background:new 0 0 463 463;" xml:space="preserve">
<g>
	<path d="M109.5,356H31v-72.5C31,270.542,20.458,260,7.5,260c-4.143,0-7.5,3.357-7.5,7.5s3.357,7.5,7.5,7.5
		c4.687,0,8.5,3.813,8.5,8.5v168c0,4.143,3.357,7.5,7.5,7.5s7.5-3.357,7.5-7.5v-48V403h73v48.5c0,4.143,3.357,7.5,7.5,7.5
		s7.5-3.357,7.5-7.5v-86C119,360.262,114.738,356,109.5,356z M31,371h73v17H31V371z"/>
	<path d="M455.5,260c-12.958,0-23.5,10.542-23.5,23.5V356h-78.5c-5.238,0-9.5,4.262-9.5,9.5v86c0,4.143,3.357,7.5,7.5,7.5
		s7.5-3.357,7.5-7.5V403h73v48.5c0,4.143,3.357,7.5,7.5,7.5s7.5-3.357,7.5-7.5v-168c0-4.687,3.813-8.5,8.5-8.5
		c4.143,0,7.5-3.357,7.5-7.5S459.643,260,455.5,260z M359,371h73v17h-73V371z"/>
	<path d="M462.99,155.298c-0.004-0.156-0.01-0.312-0.023-0.467c-0.01-0.115-0.027-0.229-0.042-0.343
		c-0.017-0.123-0.033-0.245-0.056-0.366c-0.025-0.134-0.056-0.266-0.088-0.397c-0.024-0.1-0.049-0.2-0.077-0.3
		c-0.04-0.138-0.085-0.274-0.133-0.409c-0.033-0.093-0.065-0.186-0.102-0.278c-0.052-0.13-0.108-0.257-0.167-0.384
		c-0.044-0.097-0.09-0.193-0.138-0.287c-0.058-0.113-0.121-0.223-0.184-0.333c-0.061-0.104-0.123-0.208-0.188-0.31
		c-0.061-0.094-0.125-0.185-0.19-0.276c-0.078-0.109-0.157-0.217-0.241-0.323c-0.065-0.081-0.132-0.159-0.2-0.237
		c-0.091-0.104-0.183-0.208-0.28-0.308c-0.075-0.078-0.154-0.152-0.233-0.226c-0.095-0.09-0.19-0.179-0.29-0.264
		c-0.098-0.083-0.2-0.162-0.302-0.24c-0.088-0.067-0.174-0.135-0.265-0.198c-0.132-0.092-0.27-0.177-0.408-0.261
		c-0.055-0.033-0.104-0.071-0.16-0.103l-0.145-0.083c0,0,0,0,0,0L239,23.148V11.5c0-4.143-3.357-7.5-7.5-7.5s-7.5,3.357-7.5,7.5
		v11.648L3.925,148.905l0,0l-0.145,0.083c-0.056,0.032-0.106,0.069-0.16,0.103c-0.138,0.084-0.276,0.169-0.408,0.261
		c-0.091,0.063-0.177,0.131-0.265,0.198c-0.102,0.078-0.204,0.156-0.303,0.24c-0.1,0.085-0.195,0.174-0.29,0.264
		c-0.079,0.074-0.157,0.148-0.233,0.226c-0.097,0.1-0.189,0.203-0.279,0.307c-0.068,0.078-0.136,0.157-0.201,0.238
		c-0.084,0.105-0.163,0.213-0.24,0.322c-0.065,0.091-0.13,0.183-0.191,0.277c-0.066,0.102-0.128,0.205-0.188,0.31
		c-0.064,0.11-0.126,0.22-0.184,0.333c-0.049,0.095-0.094,0.191-0.139,0.288c-0.058,0.126-0.115,0.253-0.166,0.382
		c-0.036,0.092-0.069,0.185-0.102,0.279c-0.047,0.135-0.093,0.27-0.133,0.408c-0.029,0.099-0.053,0.199-0.077,0.3
		c-0.032,0.132-0.063,0.263-0.088,0.397c-0.023,0.122-0.039,0.244-0.056,0.366c-0.015,0.114-0.032,0.227-0.042,0.343
		c-0.014,0.155-0.019,0.311-0.024,0.467C0.008,155.365,0,155.432,0,155.5v14.624c0,20.911,15.657,38.785,35.645,40.691
		c11.124,1.058,22.207-2.614,30.42-10.082c2.037-1.852,3.858-3.901,5.446-6.103C78.695,204.538,90.354,211,103.5,211
		c13.153,0,24.817-6.468,32-16.384c7.183,9.916,18.847,16.384,32,16.384s24.817-6.468,32-16.384
		c5.782,7.982,14.469,13.724,24.5,15.661V324h-96.5c-4.143,0-7.5,3.357-7.5,7.5s3.357,7.5,7.5,7.5H208v8.5
		c0,10.336,6.71,19.128,16,22.266V444h-16.5c-4.143,0-7.5,3.357-7.5,7.5s3.357,7.5,7.5,7.5h48c4.143,0,7.5-3.357,7.5-7.5
		s-3.357-7.5-7.5-7.5H239v-74.234c9.29-3.138,16-11.93,16-22.266V339h80.5c4.143,0,7.5-3.357,7.5-7.5s-3.357-7.5-7.5-7.5H239
		V210.277c10.031-1.937,18.718-7.678,24.5-15.661c7.183,9.916,18.847,16.384,32,16.384s24.817-6.468,32-16.384
		c7.183,9.916,18.847,16.384,32,16.384c13.146,0,24.805-6.462,31.99-16.369c1.588,2.201,3.409,4.25,5.446,6.103
		c7.284,6.622,16.827,10.262,26.648,10.262c1.254,0,2.513-0.06,3.771-0.18c19.987-1.906,35.645-19.78,35.645-40.691V155.5
		C463,155.432,462.992,155.365,462.99,155.298z M240,347.5c0,4.687-3.813,8.5-8.5,8.5s-8.5-3.813-8.5-8.5V339h17V347.5z M68.869,148
		H35.741l115.947-66.256L68.869,148z M190.054,70.261L131.75,148H92.881L190.054,70.261z M215.216,61.712L193.644,148H150.5
		L215.216,61.712z M231.5,58.423L253.894,148h-44.788L231.5,58.423z M269.356,148l-21.572-86.288L312.5,148H269.356z M331.25,148
		l-58.304-77.739L370.119,148H331.25z M394.131,148l-82.82-66.256L427.259,148H394.131z M55.975,189.634
		c-5.17,4.701-11.89,6.917-18.906,6.25C24.693,194.703,15,183.389,15,170.124V163h49v8.5C64,178.388,61.075,184.997,55.975,189.634z
		 M103.5,196C89.99,196,79,185.01,79,171.5V163h49v8.5C128,185.01,117.01,196,103.5,196z M167.5,196c-13.51,0-24.5-10.99-24.5-24.5
		V163h49v8.5C192,185.01,181.01,196,167.5,196z M231.5,196c-13.51,0-24.5-10.99-24.5-24.5V163h49v8.5
		C256,185.01,245.01,196,231.5,196z M295.5,196c-13.51,0-24.5-10.99-24.5-24.5V163h49v8.5C320,185.01,309.01,196,295.5,196z
		 M359.5,196c-13.51,0-24.5-10.99-24.5-24.5V163h49v8.5C384,185.01,373.01,196,359.5,196z M448,170.124
		c0,13.265-9.693,24.579-22.068,25.76c-7.027,0.667-13.736-1.551-18.906-6.25C401.925,184.997,399,178.388,399,171.5V163h49V170.124
		z"/>
</g>
<g>
</g>
<g>
</g>
<g>
</g>
<g>
</g>
<g>
</g>
<g>
</g>
<g>
</g>
<g>
</g>
<g>
</g>
<g>
</g>
<g>
</g>
<g>
</g>
<g>
</g>
<g>
</g>
<g>
</g>
</svg>
