<svg id="Layer_1" enable-background="new 0 0 512 512" height="512" viewBox="0 0 512 512" width="512" xmlns="http://www.w3.org/2000/svg"><g><path d="m512 192.08c0-4.14-1.545-8.112-4.455-11.149-.962-.997 5.43 4.388-91.545-76.424v-88.507c0-8.836-7.164-16-16-16h-288c-8.836 0-16 7.164-16 16v88.506c-98.051 81.71-90.887 75.553-92.352 77.336-2.351 2.852-3.648 6.417-3.648 10.248v303.91c0 8.836 7.164 16 16 16h480c8.836 0 16-7.164 16-16 0-309.646-.002-303.82 0-303.92zm-40.993-.08-55.007 45.839v-91.678zm-87.007-160v232.506l-128 106.667-128-106.667c0-225.119 0 130.487 0-232.506h256zm-288 205.839-55.007-45.839 55.007-45.839zm384 242.161h-448v-253.839c111.369 92.808 151.286 126.071 213.757 178.131 5.934 4.944 14.553 4.944 20.486 0 29.906-24.922 158.743-132.286 213.757-178.131z"/><path d="m190.177 252.63c6.946 5.401 17.003 4.199 22.453-2.807l112-144c5.425-6.976 4.168-17.028-2.807-22.453-6.976-5.424-17.027-4.167-22.453 2.807l-112 144c-5.425 6.975-4.168 17.028 2.807 22.453z"/><circle cx="312" cy="224" r="32"/><circle cx="200" cy="112" r="32"/></g></svg>